<svg xmlns="http://www.w3.org/2000/svg" height="150" width="300" viewBox="-3 0 100 35"><path d="M0 10.003c0-1.03.788-1.848 1.818-1.848 1.029 0 1.848.817 1.848 1.848v.786c1.027-1.482 2.513-2.784 4.996-2.784 3.601 0 5.693 2.422 5.693 6.119v8.535c0 1.032-.787 1.818-1.82 1.818-1.029 0-1.848-.786-1.848-1.818v-7.417c0-2.484-1.242-3.907-3.419-3.907-2.12 0-3.602 1.484-3.602 3.966v7.358c0 1.032-.819 1.818-1.848 1.818-.999 0-1.818-.786-1.818-1.818zm16.957-6.115c0-1.03.788-1.819 1.815-1.819 1.032 0 1.851.789 1.851 1.819v7.114c1.178-1.664 2.845-2.999 5.45-2.999 3.754 0 7.416 2.969 7.416 8.297v.062c0 5.298-3.632 8.3-7.416 8.3-2.667 0-4.332-1.335-5.45-2.818v.815c0 1-.819 1.818-1.851 1.818-.996 0-1.815-.818-1.815-1.818zm12.809 12.474V16.3c0-3.086-2.09-5.117-4.572-5.117-2.485 0-4.662 2.061-4.662 5.117v.062c0 3.058 2.177 5.115 4.662 5.115 2.514 0 4.572-1.963 4.572-5.115m5.695-6.359c0-1.03.785-1.848 1.816-1.848 1.03 0 1.848.817 1.848 1.848v.786c1.029-1.482 2.511-2.784 4.996-2.784 3.602 0 5.691 2.422 5.691 6.119v8.535c0 1.032-.787 1.818-1.817 1.818-1.031 0-1.848-.786-1.848-1.818v-7.417c0-2.484-1.24-3.907-3.42-3.907-2.121 0-3.602 1.484-3.602 3.966v7.358c0 1.032-.817 1.818-1.848 1.818-.999 0-1.816-.786-1.816-1.818zm13.928-5.667h-.861c-.163 0-.29-.132-.29-.288 0-.155.127-.291.29-.291h2.356c.154 0 .281.136.281.291 0 .156-.127.288-.281.288h-.865v2.685c0 .174-.146.312-.316.312a.3107.3107 0 01-.313-.312V4.336zm2.416-.285c0-.172.138-.311.314-.311h.066c.136 0 .226.068.287.164l1.074 1.684L54.627 3.9c.065-.107.156-.159.284-.159h.064c.179 0 .314.139.314.311v2.97c0 .173-.136.312-.314.312-.167 0-.311-.144-.311-.312V4.893L53.8 6.196c-.066.103-.146.162-.265.162-.109 0-.19-.06-.256-.162l-.863-1.291v2.121c0 .172-.135.306-.306.306-.173 0-.306-.134-.306-.306V4.051z" fill="#1C3D7A"/><path d="M85.543 17.307c.318-.172.537-.507.535-.9.002-.39-.217-.726-.535-.903.283-.23.438-.603.368-.982-.067-.385-.337-.678-.683-.8.239-.275.328-.667.194-1.03-.133-.37-.452-.612-.814-.67.188-.312.211-.711.012-1.049-.193-.339-.548-.521-.914-.517.13-.341.08-.738-.174-1.036-.248-.3-.631-.418-.99-.354.07-.353-.049-.735-.348-.99-.302-.248-.695-.3-1.039-.17.008-.364-.175-.72-.516-.913-.334-.196-.737-.178-1.051.009-.058-.359-.297-.677-.665-.812-.367-.136-.757-.043-1.032.192-.122-.342-.414-.613-.798-.684-.387-.067-.754.09-.984.368-.179-.313-.511-.53-.903-.53s-.724.217-.904.535c-.233-.283-.602-.439-.985-.373-.387.07-.677.342-.795.684-.278-.235-.668-.325-1.034-.192-.368.135-.61.452-.665.813-.313-.187-.717-.207-1.053-.011-.34.193-.523.55-.516.915-.34-.13-.738-.08-1.037.168-.301.256-.416.638-.349.994-.358-.067-.741.05-.991.35-.252.299-.302.695-.172 1.036-.362-.003-.719.178-.918.517-.193.338-.172.737.018 1.049-.363.06-.685.302-.815.67-.134.363-.043.755.193 1.03-.345.122-.618.415-.686.8-.067.38.089.752.373.982-.32.178-.537.514-.537.903 0 .392.217.729.537.9-.284.233-.44.604-.373.988.067.385.341.678.686.796-.239.271-.33.668-.193 1.029.131.369.452.609.812.668-.186.316-.207.713-.014 1.054.197.336.555.52.918.514-.13.341-.08.742.172 1.038.25.298.633.416.991.349-.072.357.048.738.349.99.299.251.697.302 1.037.172-.008.363.176.721.516.916.336.192.739.175 1.05-.009.058.357.3.677.668.807.366.137.756.048 1.033-.192.119.347.409.618.796.687.384.068.752-.089.985-.372.176.318.512.535.904.535s.727-.217.903-.535c.23.283.598.44.982.374.386-.07.678-.342.8-.688.276.24.665.332 1.03.195.37-.133.611-.452.668-.81.312.184.716.204 1.05.012.339-.198.523-.556.516-.917.344.128.737.08 1.039-.171.299-.255.418-.636.348-.99.359.064.742-.054.99-.352.251-.296.304-.697.174-1.035.366.003.721-.181.914-.517.199-.341.177-.737-.012-1.054.362-.059.682-.299.814-.665.134-.364.042-.758-.194-1.032.346-.117.615-.411.683-.794.068-.386-.086-.755-.369-.99m-1.795.607c-.057.315.04.618.231.843-.278.104-.515.316-.622.613-.11.302-.069.615.082.872-.294.053-.563.225-.722.499-.159.278-.175.595-.072.869-.297.003-.591.124-.796.369-.204.243-.273.556-.221.847-.295-.048-.602.02-.851.224-.241.207-.358.5-.361.796-.278-.101-.598-.089-.874.071-.277.159-.449.429-.498.721-.257-.15-.571-.189-.872-.083-.3.112-.514.347-.616.621-.229-.187-.532-.287-.846-.228-.314.053-.566.245-.714.502-.192-.222-.475-.372-.791-.372-.317 0-.602.147-.792.372-.15-.257-.402-.449-.717-.502-.313-.06-.617.038-.842.228-.104-.277-.316-.512-.617-.621-.302-.109-.615-.067-.874.08-.051-.289-.22-.559-.496-.718-.277-.16-.594-.172-.872-.071 0-.296-.123-.592-.365-.796-.246-.204-.556-.274-.847-.224.051-.291-.017-.604-.227-.847-.204-.245-.493-.366-.789-.369.097-.274.084-.591-.074-.869-.161-.277-.429-.446-.721-.499.148-.257.189-.57.08-.871-.108-.298-.344-.511-.621-.614.191-.225.286-.527.229-.843-.055-.315-.248-.567-.505-.715.227-.191.374-.474.373-.793 0-.319-.146-.599-.373-.793.26-.147.451-.396.508-.715.055-.313-.04-.614-.231-.843.277-.102.513-.314.621-.614.109-.299.068-.613-.08-.874.292-.052.56-.223.721-.496.158-.275.171-.598.074-.875.296 0 .587-.12.792-.365.207-.244.274-.555.224-.843.291.049.601-.022.847-.228.242-.202.364-.497.365-.791.278.096.595.084.872-.075.278-.159.445-.425.5-.719.255.149.568.189.87.081.301-.11.515-.343.617-.622.225.189.528.286.842.229.314-.055.566-.247.716-.504.191.228.476.374.793.374.316 0 .599-.146.791-.374.147.256.399.448.714.503.313.056.617-.039.846-.229.103.276.313.511.616.623.301.108.615.067.872-.081.049.293.221.56.498.718.276.159.593.172.874.075.003.294.12.588.361.792.249.204.556.275.851.225-.053.29.017.6.221.846.205.245.499.365.796.365-.103.277-.087.599.072.875.158.273.428.444.722.496-.151.261-.192.574-.082.872.107.302.344.515.622.616-.191.229-.288.529-.231.843.058.318.252.567.506.715-.227.194-.373.474-.374.793.001.319.147.602.375.793-.256.148-.448.4-.508.715" fill="#025196"/><path d="M68.181 26.03c0 .582-.472 1.056-1.058 1.056-.58 0-1.055-.474-1.055-1.056 0-.586.475-1.056 1.055-1.056.586 0 1.058.47 1.058 1.056" fill="#0D6DAE"/><path d="M66.637 24.483c0 .586-.474 1.056-1.058 1.056-.581 0-1.057-.47-1.057-1.056 0-.581.476-1.052 1.057-1.052.584.001 1.058.471 1.058 1.052" fill="#0D6DAE"/><path d="M65.377 22.686c0 .58-.471 1.056-1.055 1.056-.582 0-1.055-.476-1.055-1.056 0-.583.473-1.056 1.055-1.056.584.001 1.055.473 1.055 1.056m-.926-1.983c0 .583-.472 1.052-1.054 1.052-.582 0-1.057-.469-1.057-1.052 0-.586.475-1.057 1.057-1.057s1.054.471 1.054 1.057m-.567-2.118c0 .582-.471 1.059-1.054 1.059-.583 0-1.054-.477-1.054-1.059 0-.579.471-1.054 1.054-1.054.583 0 1.054.475 1.054 1.054m-.19-2.179c0 .58-.471 1.056-1.052 1.056-.587 0-1.058-.476-1.058-1.056 0-.58.471-1.057 1.058-1.057.582 0 1.052.477 1.052 1.057m.19-2.183c0 .586-.471 1.058-1.054 1.058-.583 0-1.054-.472-1.054-1.058 0-.58.471-1.054 1.054-1.054.583 0 1.054.473 1.054 1.054m.567-2.116c0 .586-.472 1.057-1.054 1.057-.582 0-1.057-.471-1.057-1.057 0-.582.475-1.055 1.057-1.055s1.054.473 1.054 1.055m.926-1.983c0 .584-.471 1.056-1.055 1.056-.582 0-1.055-.472-1.055-1.056 0-.582.473-1.059 1.055-1.059.584 0 1.055.477 1.055 1.059" fill="#0D6DAE"/><path d="M66.637 8.331c0 .58-.474 1.055-1.058 1.055-.581 0-1.057-.475-1.057-1.055 0-.584.476-1.057 1.057-1.057.584 0 1.058.473 1.058 1.057m9.623-4.489c0 .58-.472 1.056-1.054 1.056-.584 0-1.055-.476-1.055-1.056 0-.582.471-1.058 1.055-1.058.582 0 1.054.476 1.054 1.058m2.181.189c0 .581-.47 1.054-1.056 1.054-.581 0-1.055-.473-1.055-1.054 0-.584.474-1.057 1.055-1.057.587 0 1.056.473 1.056 1.057m5.899 2.748c0 .584-.469 1.057-1.055 1.057-.58 0-1.057-.473-1.057-1.057 0-.583.477-1.056 1.057-1.056.586 0 1.055.473 1.055 1.056" fill="#0D6DAE"/><path d="M85.887 8.331c0 .58-.47 1.055-1.054 1.055-.585 0-1.057-.475-1.057-1.055 0-.584.472-1.057 1.057-1.057.584 0 1.054.473 1.054 1.057" fill="#0D6DAE"/><path d="M87.135 10.124c0 .584-.475 1.056-1.057 1.056-.583 0-1.056-.472-1.056-1.056 0-.582.473-1.059 1.056-1.059.582 0 1.057.477 1.057 1.059m.934 1.983c0 .586-.474 1.057-1.055 1.057-.582 0-1.057-.471-1.057-1.057 0-.582.475-1.055 1.057-1.055.582.001 1.055.473 1.055 1.055m.568 2.116c0 .586-.471 1.058-1.057 1.058-.581 0-1.054-.472-1.054-1.058 0-.58.473-1.054 1.054-1.054.586 0 1.057.473 1.057 1.054m.19 2.183c0 .58-.472 1.056-1.057 1.056-.582 0-1.053-.476-1.053-1.056 0-.58.471-1.057 1.053-1.057.585 0 1.057.477 1.057 1.057m-.19 2.179c0 .582-.471 1.059-1.057 1.059-.581 0-1.054-.477-1.054-1.059 0-.579.473-1.054 1.054-1.054.586 0 1.057.475 1.057 1.054m-.569 2.118c0 .583-.47 1.052-1.054 1.052-.583 0-1.057-.469-1.057-1.052 0-.586.474-1.057 1.057-1.057.585 0 1.054.471 1.054 1.057m-.923 1.983c0 .58-.474 1.056-1.058 1.056-.577 0-1.056-.476-1.056-1.056 0-.583.479-1.056 1.056-1.056.584.001 1.058.473 1.058 1.056" fill="#0D6DAE"/><path d="M85.887 24.477c0 .583-.47 1.059-1.052 1.059-.586 0-1.059-.476-1.059-1.059 0-.582.473-1.052 1.059-1.052.582.001 1.052.47 1.052 1.052" fill="#0D6DAE"/><path d="M84.337 26.03c0 .58-.469 1.056-1.053 1.056-.58 0-1.059-.476-1.059-1.056 0-.583.479-1.056 1.059-1.056.584 0 1.053.473 1.053 1.056" fill="#0D6DAE"/><path d="M82.543 27.286c0 .583-.472 1.056-1.057 1.056-.58 0-1.054-.473-1.054-1.056 0-.582.474-1.055 1.054-1.055.585 0 1.057.473 1.057 1.055m-1.986.926c0 .586-.47 1.055-1.054 1.055-.582 0-1.056-.469-1.056-1.055 0-.582.474-1.056 1.056-1.056.584 0 1.054.474 1.054 1.056m-6.48-24.181a1.05 1.05 0 01-1.055 1.054c-.58 0-1.057-.468-1.057-1.054 0-.581.477-1.055 1.057-1.055.586 0 1.055.474 1.055 1.055" fill="#0D6DAE"/><path d="M64.354 26.275c0 .505-.411.911-.916.911-.502 0-.909-.406-.909-.911s.407-.91.909-.91c.505 0 .916.405.916.91m19.444 3.427c0 .506-.41.916-.912.916-.505 0-.911-.41-.911-.916 0-.5.406-.908.911-.908.502 0 .912.408.912.908m2.193-1.532c0 .503-.411.91-.914.91-.502 0-.909-.407-.909-.91 0-.505.407-.913.909-.913.503 0 .914.408.914.913m1.894-1.895c0 .505-.413.913-.915.913-.503 0-.908-.408-.908-.913 0-.502.405-.907.908-.907.502 0 .915.405.915.907m1.534-2.19c0 .503-.41.911-.912.911a.9099.9099 0 01-.911-.911c0-.506.406-.913.911-.913.502 0 .912.407.912.913m1.131-2.43c0 .505-.408.913-.908.913-.507 0-.915-.408-.915-.913 0-.503.408-.911.915-.911.5 0 .908.408.908.911m.691-2.584c0 .506-.407.911-.91.911a.9086.9086 0 01-.911-.911c0-.502.407-.912.911-.912.503 0 .91.41.91.912m.234-2.665c0 .504-.409.911-.907.911a.9099.9099 0 01-.914-.911c0-.504.406-.91.914-.91.497 0 .907.406.907.91m-.234-2.667c0 .503-.407.909-.91.909-.504 0-.911-.406-.911-.909 0-.505.407-.91.911-.91.503 0 .91.405.91.91m-.69-2.586c0 .502-.411.91-.912.91-.504 0-.91-.408-.91-.91 0-.503.406-.913.91-.913.501 0 .912.41.912.913m-1.132-2.427c0 .505-.41.91-.911.91a.908.908 0 01-.912-.91c0-.505.406-.911.912-.911.501 0 .911.407.911.911m-1.534-2.192c0 .504-.413.91-.912.91a.9078.9078 0 01-.911-.91c0-.506.405-.909.911-.909.499 0 .912.403.912.909m-1.894-1.895c0 .506-.411.912-.914.912-.502 0-.909-.406-.909-.912 0-.502.407-.909.909-.909.503-.001.914.407.914.909m-2.193-1.536c0 .505-.41.913-.912.913-.505 0-.911-.408-.911-.913 0-.505.406-.908.911-.908.502 0 .912.404.912.908M62.815 24.085c0 .503-.409.907-.907.907-.508 0-.916-.404-.916-.907 0-.509.408-.913.916-.913.498 0 .907.404.907.913m-1.13-2.43c0 .503-.409.913-.912.913-.504 0-.909-.41-.909-.913 0-.503.405-.911.909-.911.502 0 .912.408.912.911m-.696-2.585a.908.908 0 01-.91.912c-.504 0-.907-.405-.907-.912 0-.503.403-.911.907-.911s.91.408.91.911m-.231-2.664c0 .504-.407.911-.91.911a.9101.9101 0 01-.912-.911c0-.504.407-.91.912-.91.503 0 .91.406.91.91m.231-2.667a.908.908 0 01-.91.909.9054.9054 0 01-.907-.909c0-.503.403-.91.907-.91s.91.407.91.91m.696-2.586c0 .501-.409.912-.912.912-.504 0-.909-.411-.909-.912 0-.504.405-.912.909-.912.502 0 .912.408.912.912" fill="#1780C0"/><path d="M88.46 36.04c0 .295-.234.532-.528.532-.296 0-.53-.237-.53-.532 0-.29.234-.529.53-.529.294 0 .528.239.528.529m-2.118 0c0 .295-.238.532-.528.532a.5311.5311 0 01-.532-.532c0-.29.238-.529.532-.529.29 0 .528.239.528.529m1.32 1.75a.533.533 0 01-.532.532c-.292 0-.528-.239-.528-.532 0-.292.236-.531.528-.531.293 0 .532.239.532.531m1.26-5.62c0 .29-.238.529-.531.529-.295 0-.531-.239-.531-.529 0-.292.236-.529.531-.529.293-.001.531.237.531.529m2.58-2.58c0 .292-.239.531-.528.531-.294 0-.532-.239-.532-.531 0-.296.238-.532.532-.532.289-.001.528.236.528.532m2.094-2.995c0 .295-.238.535-.529.535-.294 0-.53-.24-.53-.535 0-.293.236-.526.53-.526.29-.001.529.233.529.526M95 23.429c0 .292-.236.531-.529.531-.296 0-.534-.239-.534-.531 0-.296.238-.529.534-.529.293-.001.529.233.529.529M62.019 28.07c0 .396-.322.718-.721.718-.393 0-.715-.321-.715-.718 0-.397.322-.719.715-.719.398 0 .721.323.721.719m-1.816-2.591c0 .394-.322.716-.717.716-.396 0-.715-.322-.715-.716 0-.396.319-.718.715-.718.395.001.717.323.717.718m-1.337-2.87c0 .399-.319.718-.718.718a.7153.7153 0 01-.717-.718c0-.394.32-.715.717-.715.399 0 .718.322.718.715m-.817-3.052c0 .396-.321.717-.72.717-.396 0-.718-.32-.718-.717 0-.399.322-.72.718-.72.399.001.72.321.72.72m-.278-3.151c0 .396-.322.719-.717.719-.396 0-.718-.322-.718-.719 0-.396.321-.719.718-.719.395 0 .717.324.717.719m.278-3.151c0 .396-.321.717-.72.717-.396 0-.718-.32-.718-.717a.719.719 0 111.438 0M87.59 2.528c0 .394-.321.72-.718.72-.397 0-.719-.326-.719-.72 0-.396.321-.719.719-.719.397 0 .718.323.718.719m6.472 13.877c0 .397-.322.72-.717.72-.397 0-.72-.322-.72-.72 0-.396.322-.718.72-.718.394 0 .717.322.717.718m-.263 3.152c0 .395-.323.717-.716.717-.396 0-.719-.322-.719-.717 0-.397.323-.718.719-.718.393.001.716.321.716.718m-.817 3.052c0 .399-.325.718-.72.718a.7164.7164 0 01-.719-.718c0-.394.321-.715.719-.715.395 0 .72.322.72.715m-1.338 2.87c0 .394-.323.716-.716.716-.399 0-.72-.322-.72-.716 0-.396.32-.718.72-.718.392.001.716.323.716.718m-1.816 2.591c0 .396-.322.718-.719.718-.396 0-.719-.321-.719-.718 0-.394.323-.716.719-.716.397 0 .719.323.719.716m-2.238 2.237c0 .396-.32.719-.715.719a.7185.7185 0 110-1.437c.395.001.715.325.715.718m-2.593 1.815c0 .396-.322.72-.715.72-.395 0-.718-.323-.718-.72 0-.396.323-.718.718-.718.393 0 .715.322.715.718M85.019.719c0 .396-.323.717-.719.717-.399 0-.72-.32-.72-.717 0-.395.32-.719.72-.719.395 0 .719.324.719.719" fill="#1B9DD9"/><path d="M79.506 16.353c0 2.329-1.884 4.216-4.214 4.216-2.326 0-4.213-1.887-4.213-4.216 0-2.328 1.887-4.215 4.213-4.215 2.33.001 4.214 1.887 4.214 4.215M68.66 12.431c0 .634.517 1.152 1.156 1.152.639 0 1.153-.519 1.153-1.152 0-.638-.514-1.156-1.153-1.156s-1.156.518-1.156 1.156" fill="#1C3D7A"/><path d="M82.949 16.406c0-.576-.431-1.037-.984-1.12.349-.201.588-.559.588-.984 0-.613-.479-1.104-1.085-1.142.168-.199.283-.447.283-.729 0-.638-.517-1.156-1.154-1.156-.143 0-.276.034-.404.081.021-.087.053-.171.053-.263 0-.639-.516-1.156-1.155-1.156-.299 0-.571.123-.775.311.006-.043.027-.083.027-.124 0-.642-.518-1.157-1.155-1.157-.369 0-.684.185-.895.453-.153-.464-.573-.804-1.086-.804-.516 0-.938.34-1.085.804-.209-.269-.521-.453-.895-.453-.64 0-1.155.516-1.155 1.157 0 .041.02.081.024.124-.207-.188-.474-.311-.777-.311-.637 0-1.154.518-1.154 1.156 0 .638.518 1.152 1.154 1.152.638 0 1.156-.514 1.156-1.152 0-.048-.021-.083-.025-.128.205.188.475.312.777.312.514 0 .937-.343 1.084-.811.212.272.524.456.896.456.37 0 .682-.184.895-.454.149.466.57.809 1.086.809.301 0 .567-.124.773-.312-.003.045-.024.08-.024.128 0 .639.517 1.152 1.154 1.152.147 0 .278-.035.403-.079-.022.087-.051.17-.051.265 0 .61.477 1.1 1.084 1.14-.172.199-.284.449-.284.731 0 .579.43 1.033.982 1.12-.342.196-.585.556-.585.984 0 .428.243.784.585.983-.553.086-.982.542-.982 1.118 0 .284.112.531.284.735-.607.04-1.084.524-1.084 1.137 0 .095.028.179.051.264-.125-.044-.256-.08-.403-.08-.638 0-1.154.515-1.154 1.153 0 .048.021.086.024.13-.206-.189-.473-.311-.773-.311-.516 0-.937.341-1.086.805-.213-.27-.524-.456-.895-.456s-.684.187-.896.456c-.147-.464-.57-.805-1.084-.805-.303 0-.572.121-.777.311.005-.044.025-.082.025-.13 0-.639-.519-1.153-1.156-1.153-.14 0-.274.036-.4.08.018-.085.052-.169.052-.264 0-.612-.481-1.097-1.084-1.137.169-.204.281-.451.281-.735 0-.576-.43-1.032-.983-1.118.342-.199.588-.556.588-.983 0-.429-.246-.788-.588-.984.554-.087.983-.541.983-1.12 0-.639-.516-1.153-1.153-1.153-.643 0-1.156.515-1.156 1.153 0 .426.24.783.585.984-.552.083-.983.544-.983 1.12 0 .575.432 1.034.983 1.119-.345.201-.585.559-.585.982 0 .614.481 1.104 1.084 1.145-.167.2-.281.447-.281.728 0 .64.516 1.156 1.156 1.156.142 0 .276-.032.403-.083-.022.09-.056.172-.056.264 0 .642.518 1.159 1.154 1.159.304 0 .57-.124.777-.311-.005.041-.024.079-.024.124 0 .638.516 1.156 1.155 1.156.373 0 .686-.187.895-.456.147.465.569.808 1.085.808.512 0 .933-.343 1.086-.808.211.27.525.456.895.456.638 0 1.155-.519 1.155-1.156 0-.045-.021-.083-.027-.124.204.187.477.311.775.311.64 0 1.155-.518 1.155-1.159 0-.092-.032-.174-.053-.264.128.051.262.083.404.083.638 0 1.154-.517 1.154-1.156 0-.28-.115-.527-.283-.728.606-.041 1.085-.53 1.085-1.145 0-.424-.239-.781-.588-.982.554-.085.984-.544.984-1.119" fill="#1C3D7A"/></svg>